<?xml version="1.0" encoding="UTF-8"?><svg id="Orange_Logo" xmlns="http://www.w3.org/2000/svg" viewBox="0 0 647.32 712.29"><defs><style>.cls-1{stroke-width:12.09px;}.cls-1,.cls-2{stroke:#ff8200;stroke-miterlimit:10;}.cls-1,.cls-2,.cls-3{fill:#ff8200;}</style></defs><path class="cls-3" d="M203.39,503.23l-28.79,66.5h-15.2l-28.69-66.5h16.62l20.24,47.5,20.52-47.5h15.29Z"/><path class="cls-3" d="M213.65,503.23h15.39v66.5h-15.39v-66.5Z"/><path class="cls-3" d="M291.93,569.73l-12.83-18.53h-14.16v18.53h-15.39v-66.5h28.79c17.77,0,28.88,9.21,28.88,24.13,0,9.97-5.04,17.29-13.68,21l14.92,21.38h-16.53ZM277.49,515.77h-12.54v23.18h12.54c9.41,0,14.16-4.37,14.16-11.59s-4.75-11.59-14.16-11.59Z"/><path class="cls-3" d="M336.96,515.77h-21.28v-12.54h57.95v12.54h-21.28v53.96h-15.39v-53.96Z"/><path class="cls-3" d="M384.94,540.47v-37.24h15.39v36.67c0,12.63,5.51,17.86,14.82,17.86s14.82-5.23,14.82-17.86v-36.67h15.2v37.24c0,19.57-11.21,30.4-30.12,30.4s-30.12-10.83-30.12-30.4Z"/><path class="cls-3" d="M516.6,557.38v12.35h-51.49v-66.5h50.26v12.35h-34.96v14.44h30.88v11.97h-30.88v15.39h36.2Z"/><path class="cls-3" d="M161.2,601.58c0,7.03-5.27,11.4-13.7,11.4h-6.36v8.7h-7.3v-31.55h13.66c8.43,0,13.7,4.37,13.7,11.45ZM153.81,601.58c0-3.47-2.25-5.5-6.72-5.5h-5.95v10.95h5.95c4.46,0,6.72-2.03,6.72-5.45Z"/><path class="cls-3" d="M193.25,621.69l-6.08-8.79h-6.72v8.79h-7.3v-31.55h13.66c8.43,0,13.7,4.37,13.7,11.45,0,4.73-2.39,8.2-6.49,9.96l7.08,10.14h-7.84ZM186.4,596.08h-5.95v11h5.95c4.46,0,6.72-2.07,6.72-5.5s-2.25-5.5-6.72-5.5Z"/><path class="cls-3" d="M211.05,605.91c0-9.38,7.3-16.32,17.26-16.32s17.26,6.9,17.26,16.32-7.35,16.32-17.26,16.32-17.26-6.94-17.26-16.32ZM238.18,605.91c0-5.99-4.24-10.1-9.87-10.1s-9.87,4.1-9.87,10.1,4.24,10.1,9.87,10.1,9.87-4.1,9.87-10.1Z"/><path class="cls-3" d="M257.83,590.13h14.33c10.32,0,17.4,6.22,17.4,15.78s-7.08,15.78-17.4,15.78h-14.33v-31.55ZM271.81,615.69c6.27,0,10.37-3.74,10.37-9.78s-4.1-9.78-10.37-9.78h-6.67v19.56h6.67Z"/><path class="cls-3" d="M301.55,607.8v-17.67h7.3v17.4c0,6,2.61,8.47,7.03,8.47s7.03-2.48,7.03-8.47v-17.4h7.21v17.67c0,9.29-5.32,14.42-14.29,14.42s-14.29-5.14-14.29-14.42Z"/><path class="cls-3" d="M342.12,605.91c0-9.51,7.3-16.32,17.13-16.32,5.45,0,10.01,1.98,12.98,5.59l-4.69,4.33c-2.12-2.43-4.78-3.7-7.93-3.7-5.91,0-10.1,4.15-10.1,10.1s4.19,10.1,10.1,10.1c3.16,0,5.81-1.26,7.93-3.74l4.69,4.33c-2.97,3.65-7.53,5.63-13.03,5.63-9.78,0-17.08-6.81-17.08-16.32Z"/><path class="cls-3" d="M390.12,596.08h-10.1v-5.95h27.5v5.95h-10.1v25.6h-7.3v-25.6Z"/><path class="cls-3" d="M418.2,590.13h7.3v31.55h-7.3v-31.55Z"/><path class="cls-3" d="M437.76,605.91c0-9.38,7.3-16.32,17.26-16.32s17.26,6.9,17.26,16.32-7.35,16.32-17.26,16.32-17.26-6.94-17.26-16.32ZM464.89,605.91c0-5.99-4.24-10.1-9.87-10.1s-9.87,4.1-9.87,10.1,4.24,10.1,9.87,10.1,9.87-4.1,9.87-10.1Z"/><path class="cls-3" d="M513.48,590.13v31.55h-6l-15.73-19.16v19.16h-7.21v-31.55h6.04l15.69,19.16v-19.16h7.21Z"/><line class="cls-1" x1="324.74" y1="84.52" x2="324.59" y2="127.43"/><rect class="cls-3" x="112.2" y="467.38" width="422.92" height="15.57" rx="2.9" ry="2.9"/><path class="cls-3" d="M325.33,79.02L113.22,240.92c-.49.37-.77.95-.77,1.57l-.98,12.6c0,1.62,1.86,2.55,3.15,1.57l209.7-157.93c.71-.53,1.68-.53,2.38.01l205.23,157.45c1.3,1,3.18.06,3.17-1.57l.9-13.44c0-.61-.29-1.18-.76-1.55l-207.52-160.6c-.71-.55-1.69-.55-2.4,0Z"/><path class="cls-3" d="M323.91,123.07l-211.57,154.07c-.65.47-1.03,1.22-1.03,2.02v13.02c0,2.04,2.3,3.22,3.96,2.03l208.61-149.8c.88-.63,2.07-.63,2.94.02l204.13,150.81c1.66,1.22,4,.03,3.99-2.03l-.06-13.83c0-.78-.38-1.52-1.01-1.99l-206.99-154.32c-.88-.65-2.08-.66-2.97-.02Z"/><path class="cls-2" d="M162.57,286.56s.84-.29.98.31.1,159.81.1,159.81c0,0,.19,1.57-1.78,1.78s-22.38,0-22.38,0c0,0-1.74.01-1.78-1.78,0,0-.58-140.64.22-142.33s24.63-17.8,24.63-17.8Z"/><path class="cls-2" d="M212.58,250.76s.84-.35.98.38.1,195.22.1,195.22c0,0,.19,1.92-1.78,2.17s-22.38,0-22.38,0c0,0-1.74.01-1.78-2.17,0,0-.62-175.7.18-177.76s24.67-17.84,24.67-17.84Z"/><path class="cls-2" d="M262.7,214.71s.84-.41.98.45.1,230.56.1,230.56c0,0,.19,2.26-1.78,2.57s-22.38,0-22.38,0c0,0-1.74.02-1.78-2.57,0,0-.66-212.01.14-214.45s24.71-16.56,24.71-16.56Z"/><path class="cls-2" d="M312.61,177.55s.84-.48.98.53.1,267.27.1,267.27c0,0,.19,2.63-1.78,2.98s-22.38,0-22.38,0c0,0-1.74.02-1.78-2.98,0,0-.53-248.22.27-251.05s24.58-16.75,24.58-16.75Z"/><path class="cls-2" d="M338.91,176.74s-.84-.48-.98.53-.1,268.3-.1,268.3c0,0-.19,2.64,1.78,2.99s22.38,0,22.38,0c0,0,1.74.02,1.78-2.99,0,0,.61-249.01-.19-251.85s-24.67-16.98-24.67-16.98Z"/><path class="cls-2" d="M389.01,213.59s-.84-.42-.98.46-.1,231.78-.1,231.78c0,0-.19,2.28,1.78,2.58s22.38,0,22.38,0c0,0,1.74.02,1.78-2.58,0,0,.53-212.17-.27-214.63s-24.58-17.61-24.58-17.61Z"/><path class="cls-2" d="M439.16,250.67s-.84-.35-.98.38-.1,195.33-.1,195.33c0,0-.19,1.92,1.78,2.18s22.38,0,22.38,0c0,0,1.74.01,1.78-2.18,0,0,.54-175.79-.26-177.86-.8-2.07-24.6-17.86-24.6-17.86Z"/><path class="cls-2" d="M489.19,287.43s-.84-.29-.98.31-.1,158.96-.1,158.96c0,0-.19,1.56,1.78,1.77s22.38,0,22.38,0c0,0,1.74.01,1.78-1.77,0,0,.7-138.94-.1-140.62s-24.75-18.65-24.75-18.65Z"/></svg>